PathFileType	4	(X/Y/Z)	s09c0102.trc
DataRate	CameraRate	NumFrames	NumMarkers	Units	OrigDataRate	OrigDataStartFrame	OrigNumFrames
200	200	4	50	mm	200	250	2000
Frame#	Time	racr			lacr			c7			jug			rlel			rdr			llel			ldr			s2			lic			ric			lasi			rasi			rpsi			lpsi			rgt			lgt			rth1			rth2			rth3			rth4			rlfc			rmfc			rsh1			rsh2			rsh3			rsh4			rlmal			rmmal			rcal			rtoe			rmt5			lth1			lth2			lth4			lth3			llfc			lmfc			llmal			lmmal			lcal			lmt5			lsh1			lsh2			lsh3			lsh4			ltoe			SBIKE			LBIKE			RBIKE			
		X1	Y1	Z1	X2	Y2	Z2	X3	Y3	Z3	X4	Y4	Z4	X5	Y5	Z5	X6	Y6	Z6	X7	Y7	Z7	X8	Y8	Z8	X9	Y9	Z9	X10	Y10	Z10	X11	Y11	Z11	X12	Y12	Z12	X13	Y13	Z13	X14	Y14	Z14	X15	Y15	Z15	X16	Y16	Z16	X17	Y17	Z17	X18	Y18	Z18	X19	Y19	Z19	X20	Y20	Z20	X21	Y21	Z21	X22	Y22	Z22	X23	Y23	Z23	X24	Y24	Z24	X25	Y25	Z25	X26	Y26	Z26	X27	Y27	Z27	X28	Y28	Z28	X29	Y29	Z29	X30	Y30	Z30	X31	Y31	Z31	X32	Y32	Z32	X33	Y33	Z33	X34	Y34	Z34	X35	Y35	Z35	X36	Y36	Z36	X37	Y37	Z37	X38	Y38	Z38	X39	Y39	Z39	X40	Y40	Z40	X41	Y41	Z41	X42	Y42	Z42	X43	Y43	Z43	X44	Y44	Z44	X45	Y45	Z45	X46	Y46	Z46	X47	Y47	Z47	X48	Y48	Z48	X49	Y49	Z49	X50	Y50	Z50	
250	1.2500	501.268622	1291.562608	-86.827755	517.008560	1279.477005	-409.131932	489.745888	1317.202811	-243.754220	476.529919	1184.548674	-247.502238	523.958142	1055.526262	16.870004	701.665536	880.890002	-39.260991	498.656020	1025.303727	-529.645979	686.610726	877.276038	-449.511914	18.303760	1118.154243	-242.251406	153.059089	1115.325224	-391.635583	163.880227	1122.231085	-98.178690	196.994914	1058.025205	-368.361253	208.132848	1067.031613	-118.333667	47.890554	1149.234806	-184.850858	43.761965	1154.761138	-294.948357	137.744141	977.412422	-51.568712	117.805659	994.422574	-434.359162	231.035741	874.131579	-54.927001	303.856636	825.796586	-63.493237	338.311646	743.943154	-69.132641	326.626291	844.558556	-85.912363	376.028741	643.636915	-101.493860	356.670101	631.054361	-198.346630	286.856380	590.314481	-71.170700	233.862311	519.245056	-84.967269	152.059043	485.450922	-84.356865	250.899572	502.952393	-117.315293	72.202149	423.634502	-86.815041	78.830553	433.880411	-164.996739	-17.657033	427.488928	-125.743542	215.326754	302.763995	-124.526865	133.917670	324.871629	-60.593253	229.585109	915.010510	-435.711744	312.870841	896.225571	-431.300193	330.029451	926.480030	-415.004850	378.813979	834.333650	-429.991785	456.712586	761.157026	-413.154376	478.219904	752.324312	-313.034790	363.683677	407.664824	-408.796139	381.747003	419.304744	-339.168043	291.757501	373.606056	-371.405792	457.432663	322.379876	-433.583606	433.782650	662.293292	-432.779187	434.630025	575.707338	-420.738678	389.936716	498.973825	-417.461269	458.957967	573.111667	-390.108286	549.224108	335.448076	-365.362200	-65.018779	852.609485	-240.526772	21.187442	83.916575	-442.125662	21.169071	83.999728	-43.917151	
251	1.2550	501.345202	1291.304696	-86.996069	516.994976	1279.468892	-409.159608	489.737949	1317.160211	-243.812628	476.534154	1184.534890	-247.557397	523.964271	1055.547936	16.843282	701.662190	880.901208	-39.272686	498.646451	1025.283861	-529.690443	686.601256	877.283992	-449.502632	18.306630	1118.153959	-242.270614	153.042069	1115.315350	-391.628774	163.866774	1122.222774	-98.183668	196.971836	1058.039070	-368.386053	208.127517	1067.034247	-118.358710	47.893283	1149.240263	-184.868765	43.732645	1154.754034	-294.960243	137.742608	977.427938	-51.592068	117.791744	994.408075	-434.375656	231.048538	874.129148	-54.921876	303.878859	825.804080	-63.499570	338.326331	743.930994	-69.139384	326.636126	844.558660	-85.921181	376.034333	643.613095	-101.501496	356.658853	631.050734	-198.359573	286.848496	590.329883	-71.190644	233.860267	519.262967	-84.983588	152.060920	485.452753	-84.372042	250.916402	502.965944	-117.314564	72.182010	423.650093	-86.802268	78.830905	433.880136	-164.996952	-17.666302	427.482241	-125.730255	215.326655	302.759738	-124.519295	133.897552	324.876128	-60.586510	229.563593	914.990127	-435.710625	312.863142	896.216128	-431.291972	330.015608	926.465174	-415.016949	378.791597	834.327997	-430.010320	456.705318	761.148248	-413.148689	478.207641	752.321188	-313.040441	363.674008	407.660204	-408.802029	381.717239	419.296978	-339.189876	291.753383	373.593022	-371.407570	457.425129	322.402482	-433.587352	433.774319	662.283648	-432.779298	434.616377	575.720473	-420.762583	389.933599	498.960649	-417.457522	458.945512	573.126812	-390.104514	549.219537	335.455264	-365.368781	-65.025568	852.604172	-240.528065	21.175395	83.934791	-442.123697	21.172505	83.992968	-43.913750	
252	1.2600	501.284114	1291.577331	-86.910831	516.996937	1279.454837	-409.168031	489.761667	1317.141581	-243.849661	476.516255	1184.548652	-247.572946	523.971501	1055.548244	16.815004	701.679781	880.899351	-39.285532	498.669958	1025.209747	-529.699119	686.597787	877.267921	-449.511941	18.306611	1118.153959	-242.270599	153.031354	1115.319232	-391.640969	163.851135	1122.241538	-98.200903	196.950256	1058.063370	-368.382157	208.140516	1067.030312	-118.372803	47.893310	1149.240385	-184.868796	43.762257	1154.744453	-294.989583	137.742823	977.433855	-51.593865	117.783579	994.398480	-434.381657	231.056086	874.138010	-54.916100	303.871794	825.804476	-63.514947	338.318191	743.945869	-69.148006	326.623793	844.562942	-85.916380	376.048531	643.625347	-101.509244	356.675152	631.038583	-198.362035	286.835090	590.327948	-71.181399	233.872353	519.253810	-84.984351	152.060538	485.453149	-84.372097	250.902075	502.951871	-117.331914	72.188132	423.653061	-86.812956	78.825351	433.870581	-165.012960	-17.683659	427.492559	-125.744041	215.331776	302.772048	-124.528509	133.924367	324.882434	-60.606894	229.565244	914.974402	-435.729543	312.855032	896.201526	-431.299091	330.011415	926.459093	-415.035770	378.781671	834.306408	-430.001984	456.696131	761.143734	-413.147590	478.207334	752.313441	-313.038472	363.681671	407.654736	-408.804726	381.747760	419.296941	-339.193142	291.754170	373.598772	-371.400958	457.413533	322.390150	-433.588498	433.778318	662.279188	-432.781452	434.616373	575.704002	-420.758521	389.946513	498.947730	-417.462549	458.943241	573.101201	-390.122531	549.219471	335.443312	-365.363721	-65.023308	852.605206	-240.529865	21.171580	83.928766	-442.122651	21.171040	83.991913	-43.926025	
253	1.2650	501.284185	1291.578955	-86.952239	517.010634	1279.438428	-409.193070	489.781794	1317.129341	-243.865775	476.499707	1184.546528	-247.596716	524.001419	1055.561405	16.803955	701.664361	880.891736	-39.308298	498.659440	1025.197819	-529.741707	686.598412	877.272954	-449.527881	18.309485	1118.153676	-242.289806	153.018692	1115.329601	-391.644085	163.854155	1122.238977	-98.199453	196.939426	1058.065072	-368.386016	208.115352	1067.080943	-118.386626	47.922038	1149.231052	-184.895863	43.733630	1154.750576	-294.980071	137.765934	977.443631	-51.618407	117.777549	994.377734	-434.378660	231.049836	874.135491	-54.953908	303.908323	825.785736	-63.546074	338.332421	743.935475	-69.157027	326.639619	844.569554	-85.966648	376.020159	643.633873	-101.518879	356.659349	631.039182	-198.367316	286.849838	590.329517	-71.190497	233.852018	519.271712	-85.005129	152.047709	485.454393	-84.376064	250.908183	502.969133	-117.352207	72.169530	423.663196	-86.811569	78.804560	433.889749	-164.996860	-17.683064	427.492363	-125.735427	215.333115	302.792136	-124.525245	133.918448	324.892960	-60.593437	229.564570	914.954360	-435.710704	312.856441	896.180518	-431.304906	329.998689	926.452990	-415.035617	378.781732	834.295054	-430.002541	456.697085	761.133647	-413.155656	478.188225	752.306676	-313.033533	363.673424	407.642421	-408.797965	381.741221	419.282802	-339.153050	291.749507	373.590428	-371.407507	457.420860	322.371774	-433.590590	433.794118	662.280121	-432.772985	434.633068	575.679159	-420.729035	389.945524	498.934939	-417.449371	458.943764	573.086550	-390.064151	549.217524	335.435394	-365.370451	-65.025995	852.604111	-240.528035	21.206648	84.091850	-442.007745	21.164080	83.985995	-43.921282	
